<mxfile host="65bd71144e">
    <diagram id="Bjy-WIJ0dZ0ZD5Bm54e_" name="Page-1">
        <mxGraphModel dx="3649" dy="1749" grid="1" gridSize="10" guides="1" tooltips="1" connect="1" arrows="1" fold="1" page="1" pageScale="1" pageWidth="850" pageHeight="1100" math="0" shadow="0">
            <root>
                <mxCell id="0"/>
                <mxCell id="1" parent="0"/>
                <mxCell id="3" style="edgeStyle=none;html=1;fontSize=19;" parent="1" source="2" target="4" edge="1">
                    <mxGeometry relative="1" as="geometry">
                        <mxPoint x="376.5" y="150" as="targetPoint"/>
                    </mxGeometry>
                </mxCell>
                <mxCell id="2" value="&lt;p style=&quot;line-height: 200%;&quot;&gt;&lt;font style=&quot;font-size: 19px;&quot;&gt;server creation&lt;/font&gt;&lt;/p&gt;" style="rounded=0;whiteSpace=wrap;html=1;" parent="1" vertex="1">
                    <mxGeometry x="336.5" y="20" width="170" height="60" as="geometry"/>
                </mxCell>
                <mxCell id="5" style="edgeStyle=none;html=1;fontSize=19;" parent="1" source="4" target="6" edge="1">
                    <mxGeometry relative="1" as="geometry">
                        <mxPoint x="376.5" y="250" as="targetPoint"/>
                    </mxGeometry>
                </mxCell>
                <mxCell id="7" style="edgeStyle=none;html=1;exitX=0.5;exitY=1;exitDx=0;exitDy=0;fontSize=19;fontColor=#CC0000;" parent="1" source="4" target="8" edge="1">
                    <mxGeometry relative="1" as="geometry">
                        <mxPoint x="291.5" y="200" as="targetPoint"/>
                    </mxGeometry>
                </mxCell>
                <mxCell id="4" value="&lt;font color=&quot;#cc0000&quot;&gt;required&lt;/font&gt;" style="rounded=0;whiteSpace=wrap;html=1;fontSize=19;" parent="1" vertex="1">
                    <mxGeometry x="360" y="120" width="120" height="50" as="geometry"/>
                </mxCell>
                <mxCell id="9" style="edgeStyle=none;html=1;fontSize=19;fontColor=#FFFFFF;" parent="1" source="6" target="10" edge="1">
                    <mxGeometry relative="1" as="geometry">
                        <mxPoint x="511.5" y="320" as="targetPoint"/>
                    </mxGeometry>
                </mxCell>
                <mxCell id="6" value="express" style="rounded=0;whiteSpace=wrap;html=1;fontSize=19;" parent="1" vertex="1">
                    <mxGeometry x="540" y="210" width="120" height="60" as="geometry"/>
                </mxCell>
                <mxCell id="17" style="edgeStyle=none;html=1;exitX=0.5;exitY=1;exitDx=0;exitDy=0;fontSize=19;fontColor=#FFFFFF;" parent="1" source="8" target="18" edge="1">
                    <mxGeometry relative="1" as="geometry">
                        <mxPoint x="181.5" y="310" as="targetPoint"/>
                    </mxGeometry>
                </mxCell>
                <mxCell id="8" value="&lt;font color=&quot;#ffffff&quot;&gt;mondodb&lt;/font&gt;" style="rounded=0;whiteSpace=wrap;html=1;fontSize=19;fontColor=#CC0000;" parent="1" vertex="1">
                    <mxGeometry x="196.5" y="210" width="120" height="60" as="geometry"/>
                </mxCell>
                <mxCell id="15" style="edgeStyle=none;html=1;fontSize=19;fontColor=#FFFFFF;entryX=0.5;entryY=0;entryDx=0;entryDy=0;" parent="1" source="10" target="16" edge="1">
                    <mxGeometry relative="1" as="geometry">
                        <mxPoint x="661" y="390" as="targetPoint"/>
                    </mxGeometry>
                </mxCell>
                <mxCell id="10" value="app = express()" style="rounded=0;whiteSpace=wrap;html=1;fontSize=19;fontColor=#FFFFFF;" parent="1" vertex="1">
                    <mxGeometry x="511.5" y="300" width="180" height="60" as="geometry"/>
                </mxCell>
                <mxCell id="16" value="app.use(route,controller)" style="rounded=0;whiteSpace=wrap;html=1;fontSize=19;fontColor=#FFFFFF;" parent="1" vertex="1">
                    <mxGeometry x="486.5" y="395" width="230" height="60" as="geometry"/>
                </mxCell>
                <mxCell id="21" style="edgeStyle=none;html=1;fontSize=19;fontColor=#FFFFFF;" parent="1" source="18" target="22" edge="1">
                    <mxGeometry relative="1" as="geometry">
                        <mxPoint x="256.5" y="390" as="targetPoint"/>
                    </mxGeometry>
                </mxCell>
                <mxCell id="18" value="&lt;div style=&quot;color: rgb(217, 215, 206); background-color: rgb(33, 39, 51); font-family: Consolas, &amp;quot;Courier New&amp;quot;, monospace; font-size: 14px; line-height: 19px;&quot;&gt;&lt;div&gt;mongoose&lt;/div&gt;&lt;div&gt;&amp;nbsp; &amp;nbsp; .&lt;span style=&quot;color: #ffd580;&quot;&gt;connect&lt;/span&gt;(port)&lt;/div&gt;&lt;/div&gt;" style="rounded=0;whiteSpace=wrap;html=1;fontSize=19;fontColor=#FFFFFF;" parent="1" vertex="1">
                    <mxGeometry x="176.5" y="300" width="160" height="50" as="geometry"/>
                </mxCell>
                <mxCell id="22" value="app.listen(port,call back function)" style="rounded=0;whiteSpace=wrap;html=1;fontSize=19;fontColor=#FFFFFF;" parent="1" vertex="1">
                    <mxGeometry x="159" y="380" width="195" height="90" as="geometry"/>
                </mxCell>
                <mxCell id="26" style="edgeStyle=none;html=1;fontSize=19;fontColor=#FFFFFF;" parent="1" source="25" target="27" edge="1">
                    <mxGeometry relative="1" as="geometry">
                        <mxPoint x="120" y="640" as="targetPoint"/>
                    </mxGeometry>
                </mxCell>
                <mxCell id="28" style="edgeStyle=none;html=1;fontSize=19;fontColor=#FFFFFF;" parent="1" source="25" target="29" edge="1">
                    <mxGeometry relative="1" as="geometry">
                        <mxPoint x="340" y="640" as="targetPoint"/>
                    </mxGeometry>
                </mxCell>
                <mxCell id="30" style="edgeStyle=none;html=1;fontSize=19;fontColor=#FFFFFF;" parent="1" source="25" target="31" edge="1">
                    <mxGeometry relative="1" as="geometry">
                        <mxPoint x="530" y="620" as="targetPoint"/>
                    </mxGeometry>
                </mxCell>
                <mxCell id="32" style="edgeStyle=none;html=1;exitX=1;exitY=1;exitDx=0;exitDy=0;fontSize=19;fontColor=#FFFFFF;" parent="1" source="25" target="33" edge="1">
                    <mxGeometry relative="1" as="geometry">
                        <mxPoint x="800" y="640" as="targetPoint"/>
                    </mxGeometry>
                </mxCell>
                <mxCell id="25" value="CRUD" style="rounded=0;whiteSpace=wrap;html=1;fontSize=19;fontColor=#FFFFFF;" parent="1" vertex="1">
                    <mxGeometry x="380" y="520" width="120" height="60" as="geometry"/>
                </mxCell>
                <mxCell id="35" style="edgeStyle=none;html=1;fontSize=19;fontColor=#FFFFFF;" parent="1" source="27" target="36" edge="1">
                    <mxGeometry relative="1" as="geometry">
                        <mxPoint x="56.5" y="720" as="targetPoint"/>
                    </mxGeometry>
                </mxCell>
                <mxCell id="27" value="create" style="rounded=0;whiteSpace=wrap;html=1;fontSize=19;fontColor=#FFFFFF;" parent="1" vertex="1">
                    <mxGeometry x="-21" y="610" width="120" height="60" as="geometry"/>
                </mxCell>
                <mxCell id="37" style="edgeStyle=none;html=1;fontSize=19;fontColor=#FFFFFF;" parent="1" target="38" edge="1">
                    <mxGeometry relative="1" as="geometry">
                        <mxPoint x="263.88" y="710" as="targetPoint"/>
                        <mxPoint x="278.8299999999998" y="670.0000000000002" as="sourcePoint"/>
                    </mxGeometry>
                </mxCell>
                <mxCell id="39" style="edgeStyle=none;html=1;exitX=0.696;exitY=1.034;exitDx=0;exitDy=0;fontSize=19;fontColor=#FFFFFF;exitPerimeter=0;" parent="1" source="29" target="40" edge="1">
                    <mxGeometry relative="1" as="geometry">
                        <mxPoint x="390" y="710" as="targetPoint"/>
                    </mxGeometry>
                </mxCell>
                <mxCell id="29" value="read" style="rounded=0;whiteSpace=wrap;html=1;fontSize=19;fontColor=#FFFFFF;" parent="1" vertex="1">
                    <mxGeometry x="280" y="610" width="120" height="60" as="geometry"/>
                </mxCell>
                <mxCell id="53" style="edgeStyle=none;html=1;exitX=0.5;exitY=1;exitDx=0;exitDy=0;entryX=0.5;entryY=0;entryDx=0;entryDy=0;fontSize=19;fontColor=#FFFFFF;" parent="1" source="31" target="55" edge="1">
                    <mxGeometry relative="1" as="geometry">
                        <mxPoint x="591.3750000000005" y="700" as="targetPoint"/>
                    </mxGeometry>
                </mxCell>
                <mxCell id="31" value="update" style="rounded=0;whiteSpace=wrap;html=1;fontSize=19;fontColor=#FFFFFF;" parent="1" vertex="1">
                    <mxGeometry x="516.49" y="620" width="120" height="60" as="geometry"/>
                </mxCell>
                <mxCell id="59" style="edgeStyle=none;html=1;fontSize=19;fontColor=#FFFFFF;entryX=0.5;entryY=0;entryDx=0;entryDy=0;" parent="1" source="33" target="60" edge="1">
                    <mxGeometry relative="1" as="geometry">
                        <mxPoint x="840" y="700" as="targetPoint"/>
                    </mxGeometry>
                </mxCell>
                <mxCell id="33" value="delete" style="rounded=0;whiteSpace=wrap;html=1;fontSize=19;fontColor=#FFFFFF;" parent="1" vertex="1">
                    <mxGeometry x="790" y="600" width="120" height="60" as="geometry"/>
                </mxCell>
                <mxCell id="36" value="model.create(req data)" style="rounded=0;whiteSpace=wrap;html=1;fontSize=19;fontColor=#FFFFFF;" parent="1" vertex="1">
                    <mxGeometry x="-60" y="700" width="205.25" height="60" as="geometry"/>
                </mxCell>
                <mxCell id="49" style="edgeStyle=none;html=1;entryX=0.5;entryY=0;entryDx=0;entryDy=0;fontSize=19;fontColor=#FFFFFF;" parent="1" source="38" target="46" edge="1">
                    <mxGeometry relative="1" as="geometry"/>
                </mxCell>
                <mxCell id="38" value="one" style="rounded=0;whiteSpace=wrap;html=1;fontSize=19;fontColor=#FFFFFF;" parent="1" vertex="1">
                    <mxGeometry x="180.38" y="720" width="80" height="40" as="geometry"/>
                </mxCell>
                <mxCell id="50" style="edgeStyle=none;html=1;exitX=0.5;exitY=1;exitDx=0;exitDy=0;fontSize=19;fontColor=#FFFFFF;" parent="1" source="40" target="51" edge="1">
                    <mxGeometry relative="1" as="geometry">
                        <mxPoint x="423.26923076923083" y="790" as="targetPoint"/>
                    </mxGeometry>
                </mxCell>
                <mxCell id="40" value="all" style="rounded=0;whiteSpace=wrap;html=1;fontSize=19;fontColor=#FFFFFF;" parent="1" vertex="1">
                    <mxGeometry x="365" y="720" width="90" height="40" as="geometry"/>
                </mxCell>
                <mxCell id="47" style="edgeStyle=none;html=1;fontSize=19;fontColor=#FFFFFF;" parent="1" source="46" target="48" edge="1">
                    <mxGeometry relative="1" as="geometry">
                        <mxPoint x="240.38499999999988" y="940" as="targetPoint"/>
                    </mxGeometry>
                </mxCell>
                <mxCell id="46" value="id from req.params" style="rounded=0;whiteSpace=wrap;html=1;fontSize=19;fontColor=#FFFFFF;" parent="1" vertex="1">
                    <mxGeometry x="160.38" y="780" width="122.75" height="70" as="geometry"/>
                </mxCell>
                <mxCell id="48" value="model.findById(id)" style="rounded=0;whiteSpace=wrap;html=1;fontSize=19;fontColor=#FFFFFF;" parent="1" vertex="1">
                    <mxGeometry x="130" y="870" width="183.5" height="70" as="geometry"/>
                </mxCell>
                <mxCell id="51" value="model.find({filters})" style="rounded=0;whiteSpace=wrap;html=1;fontSize=19;fontColor=#FFFFFF;" parent="1" vertex="1">
                    <mxGeometry x="325" y="780" width="155" height="60" as="geometry"/>
                </mxCell>
                <mxCell id="57" style="edgeStyle=none;html=1;fontSize=19;fontColor=#FFFFFF;" parent="1" source="55" target="58" edge="1">
                    <mxGeometry relative="1" as="geometry">
                        <mxPoint x="589.99" y="870" as="targetPoint"/>
                    </mxGeometry>
                </mxCell>
                <mxCell id="55" value="id from req.params" style="whiteSpace=wrap;html=1;fontSize=19;fontColor=#FFFFFF;rounded=0;" parent="1" vertex="1">
                    <mxGeometry x="530.005" y="730" width="120" height="60" as="geometry"/>
                </mxCell>
                <mxCell id="58" value="&lt;span style=&quot;color: rgb(255, 255, 255); font-family: Helvetica; font-size: 19px; font-style: normal; font-variant-ligatures: normal; font-variant-caps: normal; font-weight: 400; letter-spacing: normal; orphans: 2; text-align: center; text-indent: 0px; text-transform: none; widows: 2; word-spacing: 0px; -webkit-text-stroke-width: 0px; background-color: rgb(42, 37, 47); text-decoration-thickness: initial; text-decoration-style: initial; text-decoration-color: initial; float: none; display: inline !important;&quot;&gt;model.&lt;span style=&quot;color: rgb(255, 213, 128); background-color: rgb(33, 39, 51); font-family: Consolas, &amp;quot;Courier New&amp;quot;, monospace; font-size: 14px;&quot;&gt;findByIdAndUpdate&lt;/span&gt;&lt;/span&gt;(id)" style="rounded=0;whiteSpace=wrap;html=1;fontSize=19;fontColor=#FFFFFF;" parent="1" vertex="1">
                    <mxGeometry x="455" y="840" width="270" height="66.5" as="geometry"/>
                </mxCell>
                <mxCell id="62" value="" style="edgeStyle=none;html=1;fontSize=19;fontColor=#FFFFFF;" parent="1" source="60" target="61" edge="1">
                    <mxGeometry relative="1" as="geometry"/>
                </mxCell>
                <mxCell id="60" value="id from req.params" style="rounded=0;whiteSpace=wrap;html=1;fontSize=19;fontColor=#FFFFFF;" parent="1" vertex="1">
                    <mxGeometry x="787.25" y="690" width="122.75" height="70" as="geometry"/>
                </mxCell>
                <mxCell id="61" value="&lt;div style=&quot;color: rgb(217, 215, 206); background-color: rgb(33, 39, 51); font-family: Consolas, &amp;quot;Courier New&amp;quot;, monospace; font-size: 14px; line-height: 19px;&quot;&gt;Model.&lt;span style=&quot;color: #ffd580;&quot;&gt;findByIdAndDelete&lt;/span&gt;(id)&lt;/div&gt;" style="whiteSpace=wrap;html=1;fontSize=19;fontColor=#FFFFFF;rounded=0;" parent="1" vertex="1">
                    <mxGeometry x="725" y="830" width="255" height="70.75" as="geometry"/>
                </mxCell>
                <mxCell id="64" style="edgeStyle=none;html=1;" edge="1" parent="1" source="63" target="65">
                    <mxGeometry relative="1" as="geometry">
                        <mxPoint x="-1440" y="-1000" as="targetPoint"/>
                    </mxGeometry>
                </mxCell>
                <mxCell id="66" style="edgeStyle=none;html=1;exitX=1;exitY=0.75;exitDx=0;exitDy=0;" edge="1" parent="1" source="63" target="67">
                    <mxGeometry relative="1" as="geometry">
                        <mxPoint x="-1160" y="-1040" as="targetPoint"/>
                    </mxGeometry>
                </mxCell>
                <mxCell id="63" value="authontication" style="rounded=0;whiteSpace=wrap;html=1;" vertex="1" parent="1">
                    <mxGeometry x="-1350" y="-1100" width="120" height="60" as="geometry"/>
                </mxCell>
                <mxCell id="72" style="edgeStyle=none;html=1;" edge="1" parent="1" source="65" target="76">
                    <mxGeometry relative="1" as="geometry">
                        <mxPoint x="-1460" y="-950" as="targetPoint"/>
                    </mxGeometry>
                </mxCell>
                <mxCell id="96" style="edgeStyle=none;html=1;" edge="1" parent="1" source="65" target="97">
                    <mxGeometry relative="1" as="geometry">
                        <mxPoint x="-1630" y="-1025" as="targetPoint"/>
                    </mxGeometry>
                </mxCell>
                <mxCell id="65" value="route" style="rounded=0;whiteSpace=wrap;html=1;" vertex="1" parent="1">
                    <mxGeometry x="-1510" y="-1040" width="90" height="30" as="geometry"/>
                </mxCell>
                <mxCell id="69" value="" style="edgeStyle=none;html=1;" edge="1" parent="1" source="67" target="68">
                    <mxGeometry relative="1" as="geometry"/>
                </mxCell>
                <mxCell id="70" style="edgeStyle=none;html=1;exitX=0.75;exitY=1;exitDx=0;exitDy=0;" edge="1" parent="1" source="67" target="71">
                    <mxGeometry relative="1" as="geometry">
                        <mxPoint x="-1100" y="-1000" as="targetPoint"/>
                    </mxGeometry>
                </mxCell>
                <mxCell id="67" value="model" style="rounded=0;whiteSpace=wrap;html=1;" vertex="1" parent="1">
                    <mxGeometry x="-1180" y="-1040" width="80" height="30" as="geometry"/>
                </mxCell>
                <mxCell id="68" value="login" style="whiteSpace=wrap;html=1;rounded=0;" vertex="1" parent="1">
                    <mxGeometry x="-1210" y="-1000" width="70" height="30" as="geometry"/>
                </mxCell>
                <mxCell id="71" value="signup" style="rounded=0;whiteSpace=wrap;html=1;" vertex="1" parent="1">
                    <mxGeometry x="-1120" y="-970" width="90" height="30" as="geometry"/>
                </mxCell>
                <mxCell id="78" style="edgeStyle=none;html=1;entryX=0.5;entryY=0;entryDx=0;entryDy=0;" edge="1" parent="1" source="73" target="80">
                    <mxGeometry relative="1" as="geometry">
                        <mxPoint x="-1540" y="-870" as="targetPoint"/>
                    </mxGeometry>
                </mxCell>
                <mxCell id="79" style="edgeStyle=none;html=1;exitX=0.25;exitY=1;exitDx=0;exitDy=0;entryX=0.5;entryY=0;entryDx=0;entryDy=0;" edge="1" parent="1" source="73" target="81">
                    <mxGeometry relative="1" as="geometry">
                        <mxPoint x="-1650" y="-860" as="targetPoint"/>
                    </mxGeometry>
                </mxCell>
                <mxCell id="77" style="edgeStyle=none;html=1;exitX=0.5;exitY=1;exitDx=0;exitDy=0;entryX=0.5;entryY=0;entryDx=0;entryDy=0;" edge="1" parent="1" source="76" target="73">
                    <mxGeometry relative="1" as="geometry"/>
                </mxCell>
                <mxCell id="76" value="validator" style="rounded=0;whiteSpace=wrap;html=1;" vertex="1" parent="1">
                    <mxGeometry x="-1640" y="-1000" width="90" height="40" as="geometry"/>
                </mxCell>
                <mxCell id="83" style="edgeStyle=none;html=1;entryX=0;entryY=0.5;entryDx=0;entryDy=0;" edge="1" parent="1" source="80" target="68">
                    <mxGeometry relative="1" as="geometry"/>
                </mxCell>
                <mxCell id="87" style="edgeStyle=none;html=1;exitX=0.5;exitY=1;exitDx=0;exitDy=0;entryX=0.456;entryY=0;entryDx=0;entryDy=0;entryPerimeter=0;" edge="1" parent="1" source="80" target="86">
                    <mxGeometry relative="1" as="geometry"/>
                </mxCell>
                <mxCell id="80" value="login" style="whiteSpace=wrap;html=1;rounded=0;" vertex="1" parent="1">
                    <mxGeometry x="-1770" y="-850" width="70" height="30" as="geometry"/>
                </mxCell>
                <mxCell id="82" style="edgeStyle=none;html=1;entryX=0;entryY=0.5;entryDx=0;entryDy=0;" edge="1" parent="1" source="81" target="71">
                    <mxGeometry relative="1" as="geometry">
                        <mxPoint x="-1220" y="-950" as="targetPoint"/>
                    </mxGeometry>
                </mxCell>
                <mxCell id="84" style="edgeStyle=none;html=1;" edge="1" parent="1" source="81" target="85">
                    <mxGeometry relative="1" as="geometry">
                        <mxPoint x="-1765" y="-780" as="targetPoint"/>
                    </mxGeometry>
                </mxCell>
                <mxCell id="81" value="signup" style="rounded=0;whiteSpace=wrap;html=1;" vertex="1" parent="1">
                    <mxGeometry x="-1402.5" y="-850" width="90" height="30" as="geometry"/>
                </mxCell>
                <mxCell id="73" value="controller" style="rounded=0;whiteSpace=wrap;html=1;" vertex="1" parent="1">
                    <mxGeometry x="-1645" y="-940" width="100" height="40" as="geometry"/>
                </mxCell>
                <mxCell id="89" style="edgeStyle=none;html=1;entryX=0.5;entryY=0;entryDx=0;entryDy=0;" edge="1" parent="1" source="85" target="90">
                    <mxGeometry relative="1" as="geometry">
                        <mxPoint x="-1520" y="-640" as="targetPoint"/>
                    </mxGeometry>
                </mxCell>
                <mxCell id="85" value="signup model.create({name,email,password})" style="rounded=0;whiteSpace=wrap;html=1;" vertex="1" parent="1">
                    <mxGeometry x="-1485" y="-790" width="255" height="60" as="geometry"/>
                </mxCell>
                <mxCell id="88" style="edgeStyle=none;html=1;entryX=0.5;entryY=0;entryDx=0;entryDy=0;" edge="1" parent="1" source="86" target="90">
                    <mxGeometry relative="1" as="geometry">
                        <mxPoint x="-1520" y="-640" as="targetPoint"/>
                    </mxGeometry>
                </mxCell>
                <mxCell id="86" value="login model.findOne({email:req.body.email})&lt;br&gt;&lt;br&gt;!user || !await bcrypt,compare(req,body,password, user.password)&lt;br&gt;true: new apiError()" style="rounded=0;whiteSpace=wrap;html=1;" vertex="1" parent="1">
                    <mxGeometry x="-1910" y="-780" width="380" height="80" as="geometry"/>
                </mxCell>
                <mxCell id="93" value="" style="edgeStyle=none;html=1;" edge="1" parent="1" source="90" target="92">
                    <mxGeometry relative="1" as="geometry"/>
                </mxCell>
                <mxCell id="90" value="generat token" style="rounded=0;whiteSpace=wrap;html=1;" vertex="1" parent="1">
                    <mxGeometry x="-1590" y="-680" width="120" height="60" as="geometry"/>
                </mxCell>
                <mxCell id="92" value="jwt.sign({payload(id)},secret key,{options(expiration)})" style="whiteSpace=wrap;html=1;rounded=0;" vertex="1" parent="1">
                    <mxGeometry x="-1690" y="-600" width="320" height="40" as="geometry"/>
                </mxCell>
                <mxCell id="99" value="" style="edgeStyle=none;html=1;" edge="1" parent="1" source="97" target="98">
                    <mxGeometry relative="1" as="geometry"/>
                </mxCell>
                <mxCell id="97" value="protect" style="rounded=0;whiteSpace=wrap;html=1;" vertex="1" parent="1">
                    <mxGeometry x="-1730" y="-1040" width="80" height="35" as="geometry"/>
                </mxCell>
                <mxCell id="98" value="&lt;div style=&quot;background-color: rgb(33, 39, 51); line-height: 19px;&quot;&gt;&lt;div style=&quot;color: rgb(217, 215, 206); font-family: Consolas, &amp;quot;Courier New&amp;quot;, monospace; font-size: 14px; text-align: left;&quot;&gt;&amp;nbsp; &lt;span style=&quot;color: #5c6773;&quot;&gt;// 1) check if token exist , true get it&lt;/span&gt;&lt;/div&gt;&lt;div style=&quot;&quot;&gt;&lt;div style=&quot;line-height: 19px;&quot;&gt;&lt;div style=&quot;color: rgb(217, 215, 206); font-family: Consolas, &amp;quot;Courier New&amp;quot;, monospace; font-size: 14px; text-align: left;&quot;&gt;&amp;nbsp; &lt;span style=&quot;color: #5c6773;&quot;&gt;// 2) varify token (expired token , no change happend)&lt;/span&gt;&lt;/div&gt;&lt;div style=&quot;line-height: 19px;&quot;&gt;&lt;div style=&quot;color: rgb(217, 215, 206); font-family: Consolas, &amp;quot;Courier New&amp;quot;, monospace; font-size: 14px; text-align: left;&quot;&gt;&amp;nbsp; &lt;span style=&quot;color: #5c6773;&quot;&gt;// 3) check if user exists&lt;/span&gt;&lt;/div&gt;&lt;div style=&quot;line-height: 19px;&quot;&gt;&lt;div style=&quot;color: rgb(217, 215, 206); font-family: Consolas, &amp;quot;Courier New&amp;quot;, monospace; font-size: 14px; text-align: left;&quot;&gt;&amp;nbsp; &lt;span style=&quot;color: #5c6773;&quot;&gt;// 4) check if user change his password after token created&lt;/span&gt;&lt;/div&gt;&lt;div style=&quot;text-align: left;&quot;&gt;&lt;font face=&quot;Consolas, Courier New, monospace&quot; color=&quot;#d9d7ce&quot;&gt;&lt;span style=&quot;font-size: 14px;&quot;&gt;&lt;br&gt;&lt;/span&gt;&lt;/font&gt;&lt;/div&gt;&lt;/div&gt;&lt;/div&gt;&lt;/div&gt;&lt;/div&gt;&lt;div style=&quot;color: rgb(217, 215, 206); font-family: Consolas, &amp;quot;Courier New&amp;quot;, monospace; font-size: 14px;&quot;&gt;&lt;/div&gt;&lt;/div&gt;" style="whiteSpace=wrap;html=1;rounded=0;" vertex="1" parent="1">
                    <mxGeometry x="-2270" y="-1070" width="490" height="100" as="geometry"/>
                </mxCell>
            </root>
        </mxGraphModel>
    </diagram>
</mxfile>